<?xml version="1.0" standalone="no"?>
<!DOCTYPE svg PUBLIC "-//W3C//DTD SVG 20010904//EN"
 "http://www.w3.org/TR/2001/REC-SVG-20010904/DTD/svg10.dtd">
<svg version="1.0" xmlns="http://www.w3.org/2000/svg"
 width="249.000000pt" height="254.000000pt" viewBox="0 0 249.000000 254.000000"
 preserveAspectRatio="xMidYMid meet">
<metadata>
Created by potrace 1.10, written by Peter Selinger 2001-2011
</metadata>
<g transform="translate(0.000000,254.000000) scale(0.100000,-0.100000)"
fill="#000000" stroke="none">
<path d="M415 2242 c-45 -28 -58 -49 -59 -95 -1 -59 21 -88 97 -125 76 -36 93
-65 57 -94 -27 -22 -75 -23 -114 -3 -40 21 -46 19 -46 -18 0 -28 5 -36 35 -50
104 -50 225 9 225 109 0 54 -25 85 -105 127 -43 23 -61 39 -63 55 -7 49 44 67
102 37 40 -21 46 -19 46 15 0 23 -7 33 -30 45 -40 20 -108 19 -145 -3z m19
-141 c12 -17 35 -34 58 -40 22 -7 48 -25 63 -45 24 -31 24 -35 11 -61 -8 -16
-13 -32 -10 -37 3 -4 1 -8 -4 -8 -6 0 -8 17 -5 38 6 43 -25 92 -58 92 -11 0
-17 5 -14 10 3 6 -2 10 -11 10 -21 0 -64 38 -64 57 0 21 14 15 34 -16z"/>
<path d="M723 2140 c-45 -27 -66 -73 -66 -145 0 -75 22 -122 68 -141 44 -18
77 -18 120 0 31 13 35 19 35 50 0 39 -5 43 -34 21 -26 -19 -70 -19 -90 0 -32
32 -32 128 1 160 18 19 62 19 87 0 29 -22 36 -19 36 15 0 55 -93 79 -157 40z"/>
<path d="M1031 2135 c-30 -26 -31 -26 -31 -6 0 17 -6 21 -30 21 l-30 0 0 -151
0 -150 37 3 37 3 -3 90 c-2 85 -1 92 23 118 19 20 34 27 53 25 24 -3 27 0 27
32 0 30 -4 35 -26 38 -16 2 -37 -7 -57 -23z"/>
<path d="M1190 2142 c-25 -12 -36 -25 -38 -44 -4 -32 4 -34 44 -13 35 18 86
19 102 3 7 -7 12 -22 12 -34 0 -18 -7 -22 -56 -27 -89 -9 -133 -53 -119 -118
14 -61 102 -90 155 -50 35 25 41 26 33 5 -5 -12 1 -15 28 -12 l34 3 3 100 c4
129 -8 172 -53 191 -46 19 -103 18 -145 -4z m120 -190 c0 -35 -36 -58 -74 -48
-19 4 -26 13 -26 29 0 33 19 47 62 47 35 0 38 -2 38 -28z"/>
<path d="M1566 2135 c-34 -23 -36 -23 -36 -5 0 16 -7 20 -30 20 l-30 0 0 -211
0 -210 38 3 37 3 -3 74 -4 74 30 -22 c35 -25 72 -27 112 -6 53 27 78 110 61
200 -18 95 -98 132 -175 80z m71 -53 c20 -13 35 -65 28 -102 -13 -68 -58 -89
-102 -48 -35 32 -33 109 3 137 28 22 51 26 71 13z"/>
<path d="M1870 2142 c-49 -24 -73 -72 -73 -142 0 -69 16 -113 49 -135 34 -22
110 -29 162 -16 38 11 42 15 42 42 0 26 -3 30 -17 24 -10 -4 -41 -10 -69 -12
-46 -5 -53 -3 -72 22 -39 49 -32 55 72 55 105 0 112 4 100 69 -9 51 -21 69
-57 91 -40 25 -91 25 -137 2z m104 -58 c9 -8 16 -24 16 -35 0 -17 -7 -19 -60
-19 -66 0 -77 13 -40 50 24 24 63 26 84 4z"/>
<path d="M1330 1495 c-1 -3 -1 -98 -1 -212 l0 -208 35 -3 36 -3 0 83 0 83 53
-82 c50 -80 53 -83 89 -83 24 0 38 5 38 13 0 6 -22 45 -49 86 l-50 74 45 51
c54 63 56 76 7 76 -35 -1 -42 -6 -83 -63 l-45 -62 -3 128 -3 127 -34 0 c-19 0
-35 -2 -35 -5z"/>
<path d="M340 1270 l0 -201 43 3 42 3 0 83 -1 82 77 0 76 0 -1 -82 -1 -83 43
-3 42 -3 0 201 0 201 -42 -3 -43 -3 0 -77 1 -78 -76 0 -76 0 1 78 0 77 -42 3
-43 3 0 -201z m82 20 c4 0 8 -5 8 -12 0 -13 -29 -48 -40 -48 -15 0 -20 49 -9
77 11 28 11 28 22 6 5 -13 14 -23 19 -23z m202 -6 c6 -56 -13 -70 -40 -29 -15
22 -15 26 0 40 9 9 16 22 16 28 0 23 21 -10 24 -39z"/>
<path d="M797 1370 c-40 -12 -57 -29 -57 -56 0 -28 7 -29 46 -9 35 18 86 19
102 3 7 -7 12 -22 12 -34 0 -18 -7 -22 -56 -27 -89 -9 -133 -53 -119 -118 14
-61 102 -90 155 -50 35 25 41 26 33 5 -5 -12 1 -15 28 -12 l34 3 3 100 c4 129
-8 172 -53 191 -38 15 -85 17 -128 4z m103 -198 c0 -35 -36 -58 -74 -48 -19 4
-26 13 -26 29 0 33 19 47 62 47 35 0 38 -2 38 -28z"/>
<path d="M1112 1365 c-43 -19 -71 -81 -72 -156 0 -88 51 -148 126 -149 34 0
94 18 95 28 0 4 2 19 4 34 5 35 -9 43 -37 24 -33 -23 -74 -20 -92 6 -10 13
-16 43 -16 73 0 30 6 60 16 73 18 26 60 29 93 6 19 -14 25 -14 32 -3 12 19 11
24 -9 49 -23 28 -94 36 -140 15z"/>
<path d="M1670 1363 c-52 -27 -72 -73 -68 -160 4 -83 25 -115 89 -134 45 -14
143 -4 159 16 18 21 8 51 -15 47 -92 -15 -120 -14 -136 4 -9 11 -20 29 -23 41
-7 22 -5 22 91 25 96 3 98 4 101 28 6 37 -15 93 -43 120 -33 31 -107 38 -155
13z m107 -55 c6 -7 13 -23 16 -35 5 -22 2 -23 -59 -23 l-64 0 11 27 c6 15 16
31 22 35 19 12 64 9 74 -4z"/>
<path d="M2027 1353 c-27 -27 -27 -27 -27 -5 0 20 -4 23 -31 20 l-31 -3 0
-145 1 -145 36 -3 35 -3 0 94 c0 81 3 98 21 122 18 22 28 26 50 21 28 -5 29
-4 29 34 0 37 -2 40 -28 40 -17 0 -38 -11 -55 -27z"/>
<path d="M527 683 c-4 -3 -7 -94 -7 -200 l0 -194 38 3 37 3 3 55 c2 30 0 102
-4 160 -6 95 -8 102 -19 76 l-12 -28 -6 32 c-7 30 6 70 21 70 16 -1 50 -37 57
-60 8 -25 8 -25 -14 -6 -12 11 -21 14 -21 7 0 -18 137 -286 153 -300 9 -7 33
-11 54 -9 l38 3 3 198 2 197 -35 0 -35 0 0 -145 0 -145 -70 137 c-38 75 -76
140 -82 145 -16 9 -92 11 -101 1z m259 -279 c3 9 12 16 20 16 19 0 19 -73 0
-89 -18 -15 -62 29 -68 69 l-5 30 23 -21 c21 -20 24 -20 30 -5z"/>
<path d="M993 580 c-52 -32 -68 -65 -68 -145 0 -53 5 -77 20 -99 34 -51 113
-69 198 -45 32 9 37 14 37 41 0 27 -2 30 -22 23 -13 -4 -44 -10 -70 -12 -37
-4 -50 -1 -67 16 -12 12 -21 30 -21 41 0 19 7 20 95 20 69 0 95 3 96 13 3 37
-5 85 -18 110 -27 54 -121 73 -180 37z m109 -57 c10 -9 18 -24 18 -35 0 -15
-8 -18 -60 -18 -65 0 -72 8 -44 48 18 26 60 29 86 5z"/>
<path d="M1780 593 c-34 -13 -60 -47 -60 -80 0 -51 16 -71 76 -98 39 -17 54
-29 54 -43 0 -33 -60 -44 -96 -17 -28 21 -44 18 -44 -9 0 -32 23 -54 65 -62
78 -14 141 21 146 81 5 54 -9 73 -72 102 -47 22 -59 32 -57 48 2 16 10 20 43
19 22 0 48 -4 58 -8 14 -7 17 -3 17 23 0 25 -6 34 -26 41 -27 11 -79 12 -104
3z"/>
<path d="M1229 585 c-5 -4 43 -180 77 -283 2 -9 19 -12 51 -10 l47 3 22 88
c12 49 24 90 26 93 3 2 13 -31 22 -74 10 -42 23 -85 28 -94 12 -25 84 -25 96
0 11 21 82 257 82 272 0 7 -15 10 -37 8 l-37 -3 -27 -105 c-15 -58 -28 -107
-29 -110 0 -3 -9 27 -19 65 -46 172 -38 157 -78 153 l-36 -3 -27 -110 -27
-110 -12 45 c-51 190 -44 175 -82 178 -19 2 -37 0 -40 -3z"/>
</g>
</svg>
